<?xml version="1.0" encoding="iso-8859-1"?>
<!-- Uploaded to: SVG Repo, www.svgrepo.com, Generator: SVG Repo Mixer Tools -->
<svg height="800px" width="800px" version="1.1" id="Layer_1" xmlns="http://www.w3.org/2000/svg" xmlns:xlink="http://www.w3.org/1999/xlink" 
	 viewBox="0 0 512 512" xml:space="preserve">
<path style="fill:#3D6DEB;" d="M442.182,0c-38.498,0-69.818,31.32-69.818,69.818c0,19.926,8.405,37.916,21.839,50.649
	l-70.681,159.04c-1.806-0.141-3.621-0.234-5.461-0.234c-5.916,0-11.661,0.746-17.15,2.138l-51.11-76.667
	c8.758-11.667,13.957-26.155,13.957-41.835c0-38.498-31.32-69.818-69.818-69.818s-69.818,31.32-69.818,69.818
	c0,19.928,8.405,37.916,21.839,50.651L75.278,372.598c-1.804-0.141-3.62-0.234-5.46-0.234C31.32,372.364,0,403.684,0,442.182
	S31.32,512,69.818,512s69.818-31.32,69.818-69.818c0-19.926-8.405-37.917-21.839-50.649l70.684-159.04
	c1.803,0.141,3.62,0.234,5.458,0.234c5.916,0,11.663-0.746,17.152-2.138l51.108,76.667c-8.758,11.667-13.957,26.155-13.957,41.835
	c0,38.498,31.32,69.818,69.818,69.818s69.818-31.32,69.818-69.818c0-19.926-8.405-37.916-21.838-50.649l70.682-159.04
	c1.803,0.141,3.618,0.234,5.458,0.234c38.498,0,69.818-31.32,69.818-69.818S480.68,0,442.182,0z"/>
<g>
	<path style="fill:#5286FA;" d="M318.061,325.818c-12.833,0-23.273,10.44-23.273,23.273c0,12.833,10.44,23.273,23.273,23.273
		c12.833,0,23.273-10.44,23.273-23.273C341.333,336.258,330.893,325.818,318.061,325.818z"/>
	<path style="fill:#5286FA;" d="M80.992,421.778c-1.091-0.6-2.245-1.097-3.437-1.517c-2.423-0.86-5.021-1.351-7.737-1.351
		c-12.833,0-23.273,10.44-23.273,23.273c0,12.833,10.44,23.273,23.273,23.273s23.273-10.44,23.273-23.273
		C93.091,433.397,88.196,425.737,80.992,421.778z"/>
</g>
<g>
	<path style="fill:#424EDE;" d="M263.758,162.909c0-38.498-31.32-69.818-69.818-69.818s-69.818,31.32-69.818,69.818
		c0,19.928,8.405,37.916,21.839,50.651L127.099,256h50.935l10.448-23.507c1.803,0.141,3.62,0.234,5.458,0.234
		c5.916,0,11.663-0.746,17.152-2.138L228.031,256h55.94L249.8,204.744C258.558,193.077,263.758,178.589,263.758,162.909z"/>
	<path style="fill:#424EDE;" d="M442.182,0c-38.498,0-69.818,31.32-69.818,69.818c0,19.926,8.405,37.916,21.839,50.649L333.968,256
		h50.935l51.819-116.598c1.804,0.141,3.62,0.234,5.46,0.234c38.498,0,69.818-31.32,69.818-69.818S480.68,0,442.182,0z"/>
</g>
<g>
	<path style="fill:#6E76E5;" d="M193.939,139.636c-12.833,0-23.273,10.44-23.273,23.273s10.44,23.273,23.273,23.273
		c12.833,0,23.273-10.44,23.273-23.273S206.772,139.636,193.939,139.636z"/>
	<path style="fill:#6E76E5;" d="M465.455,69.818c0-12.833-10.44-23.273-23.273-23.273c-12.833,0-23.273,10.44-23.273,23.273
		s10.44,23.273,23.273,23.273C455.014,93.091,465.455,82.651,465.455,69.818z"/>
</g>
</svg>